<svg width="80" height="80" viewBox="0 0 80 80" fill="none" xmlns="http://www.w3.org/2000/svg">
<path fill-rule="evenodd" clip-rule="evenodd" d="M25.6121 44.435C20.9513 44.435 18.8653 42.6346 18.8653 39.9676C18.8653 37.3832 20.9509 35.5649 25.6121 35.5649C30.2546 35.5649 32.3406 37.3741 32.3406 39.9676C32.3406 42.635 30.2638 44.435 25.6121 44.435ZM56.1315 44.1076L47.8616 44.1009L47.8649 43.0156C47.8649 43.0156 48.7033 42.9177 49.0444 42.8728C49.3847 42.8276 49.5188 42.5379 49.5171 42.2171C49.5163 41.8963 49.5213 38.1942 49.5213 37.8186C49.5205 37.443 49.3495 37.2259 48.9813 37.1728C48.6132 37.1201 47.8529 37.0437 47.8529 37.0437V35.8837H56.1315C59.888 35.8837 61.5124 37.7111 61.5124 39.8896C61.5124 42.308 59.888 44.1076 56.1315 44.1076ZM32.7083 44.137V43.0094C32.7083 43.0094 33.6973 42.8998 33.8521 42.8732C34.2253 42.8077 34.3597 42.5595 34.3593 42.1706V37.863C34.3593 37.443 34.1746 37.2101 33.7741 37.1657C33.6446 37.1516 32.7083 37.0429 32.7083 37.0429V35.8824C32.7083 35.8824 38.449 35.8779 38.537 35.8783C38.8491 35.8799 39.0629 36.0294 39.2272 36.2398C39.2604 36.2821 43.5801 41.9909 43.5801 41.9909C43.5801 41.9909 43.5817 38.2992 43.5801 37.9099C43.5793 37.5206 43.4431 37.2313 43.0476 37.1827C42.9243 37.1674 41.9291 37.0508 41.9291 37.0508V35.8824H47.2125V37.0408C47.2125 37.0408 46.2861 37.1408 46.0931 37.1711C45.6391 37.2417 45.5639 37.5488 45.5615 37.8763C45.5598 38.2041 45.5615 44.1374 45.5615 44.1374L41.4186 44.1366C41.1438 44.1366 40.8708 44.0117 40.7222 43.8212C40.6242 43.6954 36.3411 38.0286 36.3411 38.0286C36.3411 38.0286 36.339 41.8498 36.3411 42.2283C36.3432 42.6068 36.5274 42.8405 36.8632 42.8807C37.1986 42.9214 37.9921 43.0098 37.9921 43.0098V44.1374L32.7083 44.137ZM3.53277 44.1354L3.52945 43.0339C3.52945 43.0339 4.20512 42.9546 4.62306 42.9035C5.041 42.8517 5.18335 42.5827 5.18377 42.1117V37.9223C5.1846 37.5015 5.0796 37.2081 4.63551 37.1408C4.4807 37.1172 3.53318 37.0122 3.53318 37.0122L3.53277 35.8804H10.1368L10.1305 37.0055C10.1305 37.0055 9.14567 37.1163 9.01535 37.1354C8.67793 37.1823 8.48826 37.4006 8.48577 37.8734V39.1824H13.5761V37.9024C13.5761 37.4928 13.455 37.1848 13.0719 37.1338C12.6888 37.0827 11.9222 36.9956 11.9222 36.9956L11.9247 35.8799H18.5287L18.5229 37.0059C18.5229 37.0059 17.7344 37.0985 17.3861 37.1416C17.0379 37.1848 16.8765 37.4538 16.8773 37.8958C16.8777 37.9734 16.8748 41.7195 16.8773 42.193C16.8798 42.6674 17.1442 42.8438 17.3612 42.8724C17.5787 42.8998 18.5312 43.0069 18.5312 43.0069L18.5283 44.1354H11.9251L11.931 43.0027C11.931 43.0027 12.9366 42.8915 13.0648 42.8666C13.5155 42.7757 13.5778 42.4694 13.5761 42.0942C13.5745 41.719 13.5761 40.8329 13.5761 40.8329H8.48577C8.48577 40.8329 8.48203 41.5991 8.48577 42.1552C8.4895 42.7114 8.75097 42.8687 9.00373 42.9044C9.3233 42.9459 10.1359 43.0355 10.1359 43.0355L10.1368 44.1354H3.53277ZM57.7186 40.0004C57.7186 37.924 56.879 37.4616 54.8669 37.4616H52.7536V42.5122H54.8669C56.879 42.5126 57.7186 42.0959 57.7186 40.0004ZM28.5476 39.9954C28.5476 37.8543 27.4768 37.1504 25.6034 37.1504C23.7295 37.1504 22.6591 37.8543 22.6591 39.9954C22.6591 42.1648 23.7299 42.8554 25.6034 42.8554C27.4768 42.8554 28.5476 42.1648 28.5476 39.9954ZM66.145 44.1387H60.862V43.0119C60.862 43.0119 61.5908 42.9139 61.9847 42.8629C62.3786 42.8118 62.5359 42.4981 62.5807 42.4267C62.6259 42.3569 65.1576 38.2556 65.378 37.8883C65.5984 37.521 65.366 37.2404 65.0771 37.189C64.8754 37.1529 63.615 37.0234 63.615 37.0234L63.6141 35.882H70.0608C70.4647 35.8932 70.7133 36.3469 70.7133 36.3469L74.417 42.0125C74.7171 42.469 74.9445 42.8044 75.311 42.8587C75.6783 42.9123 76.4652 43.004 76.4652 43.004L76.4702 44.137H69.332L69.3387 43.0177C69.3387 43.0177 69.8089 42.9554 70.2385 42.8994C70.6688 42.8434 71.0303 42.657 70.6738 42.1332C70.3173 41.6103 70.326 41.6153 70.326 41.6153L65.2664 41.6265C65.2664 41.6265 65.1091 41.8631 64.8634 42.2432C64.6185 42.6226 64.8771 42.8625 65.2402 42.9073L66.1458 43.0198L66.145 44.1387ZM66.1882 40.1349L69.3748 40.151L67.7632 37.6027L66.1882 40.1349Z" fill="#255398"/>
</svg>
