<svg width="80" height="80" viewBox="0 0 80 80" fill="none" xmlns="http://www.w3.org/2000/svg">
<path d="M39.9967 80C62.0867 80 80 62.0928 80 40.0065C80 17.9072 62.0867 0 39.9967 0C17.9133 0 0 17.9072 0 40.0065C0 62.0928 17.9133 80 39.9967 80ZM47.53 60.3743C46.8633 63.3946 45.7133 69.8389 43.0767 72.4166C42.2767 73.1912 41.2867 73.5492 40.41 73.6208H40C32.62 73.6208 25.7467 71.6029 19.9933 68.192L19.7733 68.0293C19.24 67.6843 18.9733 67.2026 18.9733 66.6102C18.9733 66.096 19.1167 65.6989 19.3033 65.3409L19.6667 64.7095C21 62.5484 24.9933 56.8983 32.5267 51.2547C35.17 49.2954 38.48 46.8348 41.9433 45.3963C43.97 44.5761 51.5067 42.3173 47.53 60.3743ZM67.7333 20.0553C67.8767 19.5736 68.0667 19.1635 68.41 19.131C68.5967 19.0919 68.85 19.1766 69.2367 19.6517C73.9333 25.2954 76.72 32.358 76.72 39.9935C76.72 53.7803 67.64 65.6403 54.6533 70.8153C53.8267 71.1408 53.2667 71.1277 53.0833 70.7177C52.95 70.4703 52.9167 70.0277 53.0833 69.4809C53.1808 69.1424 53.2971 68.8259 53.43 68.537C60.4967 52.2636 65.8833 28.2506 67.4133 21.3246C67.53 20.843 67.64 20.3678 67.7333 20.0553ZM32.59 19.5411C33.2567 16.5273 34.4067 10.0765 37.04 7.52482C37.84 6.74369 38.83 6.36615 39.7067 6.32059C39.91 6.30757 40.0533 6.32059 40.1067 6.32059C47.4967 6.32059 54.36 8.31245 60.12 11.7429C60.1633 11.7819 60.2967 11.8731 60.34 11.9056C60.8733 12.2571 61.14 12.7323 61.14 13.3247C61.14 13.8389 61 14.2164 60.8133 14.581C60.6953 14.7984 60.573 15.0069 60.4467 15.2059C59.1233 17.3865 55.12 23.0236 47.5867 28.6672C44.9367 30.646 41.6333 33.0871 38.18 34.5191C36.1467 35.3653 28.6133 37.598 32.59 19.5411ZM25.3333 9.17168C26.1667 8.85923 26.7167 8.85923 26.92 9.26932C27.0367 9.5297 27.07 9.95931 26.9133 10.5061C26.8137 10.8358 26.6976 11.1454 26.5667 11.4304C19.5 27.7234 14.11 51.7168 12.5733 58.6623C12.4769 59.095 12.3701 59.5186 12.2533 59.9316C12.12 60.4068 11.9233 60.8169 11.5867 60.856C11.4 60.8885 11.1367 60.7844 10.75 60.3287C6.05667 54.6851 3.26667 47.629 3.26667 39.9935C3.26667 26.2067 12.3467 14.3466 25.3333 9.17168Z" fill="#085DA6"/>
</svg>
