<svg width="80" height="80" viewBox="0 0 80 80" fill="none" xmlns="http://www.w3.org/2000/svg">
<path fill-rule="evenodd" clip-rule="evenodd" d="M76.4706 74.9645V5.03564H3.52945V74.9645H76.4706Z" fill="#255398"/>
<path fill-rule="evenodd" clip-rule="evenodd" d="M45.0933 44.2975C46.4268 45.2202 47.0248 45.6369 48.3372 46.3341C49.4266 45.8651 50.6979 46.3125 50.5007 47.2522C50.3704 47.8747 50.2617 49.2028 49.5694 49.1526C48.8033 49.0887 47.9578 48.7048 46.9331 49.3344C46.2433 49.739 45.2942 51.5963 44.6812 51.7457C44.9497 52.1211 45.2173 52.4973 45.4838 52.8742C47.2162 52.8742 48.521 53.8068 49.1988 54.2455C52.0293 52.995 53.1416 53.5208 55.9455 54.0487C56.2925 54.1147 56.478 53.5536 56.368 53.0983C56.1809 52.3222 55.7123 51.219 55.6816 50.7272L55.6799 44.2332C55.2657 43.7244 54.6942 42.7935 54.6917 42.7943C53.5027 43.1101 52.9473 43.0392 52.7286 42.3232C52.4929 41.5509 51.9181 39.9571 51.4682 38.9532C51.4682 38.9532 54.0144 38.639 55.5359 36.7182C56.1049 35.999 56.7146 34.8049 56.7017 33.3689C56.6743 30.152 54.2369 25.4148 53.6263 23.7804C53.259 22.7972 52.1966 20.2095 53.2258 19.1499C53.6297 18.7353 54.4622 18.5087 55.0561 19.8069C55.3437 20.4357 55.4703 20.1634 55.4135 20.278C54.6735 21.477 54.234 22.1199 54.5436 23.2164C54.9748 24.7462 56.8611 26.205 57.4633 26.606C57.4633 26.606 58.4702 27.2941 58.6736 27.1326C59.155 26.7487 57.9755 24.7196 58 24.3092C58.0228 23.9331 58.0373 23.592 58.1548 23.1969C58.2859 22.7536 58.4889 22.1 58.6063 21.4276C58.984 19.2869 57.2956 16.3181 55.3321 16.038C54.8084 15.9633 53.1395 16.6257 51.6811 18.9117C51.4038 19.3445 51.0058 20.4589 51.049 21.3118C50.3339 19.5193 49.4561 17.4819 48.4982 15.9766C48.1894 15.2652 46.5633 13.2834 46.0744 13.1465C44.7281 12.7692 43.5452 13.0012 42.2735 12.7949C41.7498 12.8505 38.0074 13.7051 37.8817 13.8885C37.8817 13.8885 36.9707 15.3835 36.9707 15.3918C36.0418 15.6308 34.8457 16.0484 34.7058 16.2393C34.2929 16.7647 33.9007 16.9876 34.0335 17.2026C34.2099 17.8143 34.6042 17.9334 34.6042 17.9334L36.6482 17.9363C37.1811 16.9946 38.8093 17.1353 39.7609 17.9579C40.0979 18.2497 39.7618 18.0052 39.9157 18.4535C39.3629 18.6925 38.4785 18.9872 37.8447 18.8195C36.974 18.6905 35.2176 18.5651 34.7341 18.744L35.0844 19.3462C35.6177 19.5844 36.7461 19.6882 37.1666 19.6961C37.8447 19.7119 38.8545 19.7837 39.7389 19.7119C39.2965 20.373 39.0326 21.2504 38.4353 21.2504H36.0622C36.0966 21.4147 35.5596 21.3774 35.6127 21.533C35.6127 21.533 35.9621 21.9705 36.1539 22.2494L37.5721 22.3249C38.2208 22.3647 38.1776 23.0114 37.9423 23.3782C37.5438 23.9917 36.4307 25.1384 35.4724 25.2343C33.0694 23.0354 31.2706 21.4342 28.912 19.4666C28.514 19.1316 28.0716 18.9731 27.4154 18.8527C26.7596 18.7336 25.661 18.6299 24.6953 18.6299C24.2827 18.6299 22.1353 18.3871 21.988 18.5307L22.3906 19.1619C22.4454 19.4981 22.3669 19.6683 22.3055 20.2954C22.2843 20.5465 22.1872 20.9889 22.1872 20.9889C22.1872 20.9889 22.4968 21.4317 22.7463 21.8248C23.7934 21.3977 24.667 22.2182 24.667 22.2182L23.8976 22.7976L24.6363 23.8796C25.8889 24.3727 26.7609 24.42 28.5791 24.0348L32.0791 28.5197L25.6822 28.8621C24.7974 28.894 24.1192 29.6187 23.9059 30.2321C23.6847 30.8376 22.5122 31.0775 22.4599 31.5631L23.2132 32.7152L23.6506 32.5774C23.9109 32.9053 24.3375 33.5611 24.9928 33.8777C25.2215 33.4407 25.8354 32.9049 26.565 33.0626C26.7559 33.315 27.2149 34.0309 27.2149 34.0309C28.3056 34.2139 29.6113 33.339 29.8396 32.2238L35.1234 32.1462L38.044 35.745C36.0053 38.6328 33.9011 42.0132 31.9102 45.333C32.7801 46.1619 32.4788 47.8531 31.0507 48.0117C30.0757 48.1204 29.0012 47.175 27.6889 47.4858C26.3811 47.7855 24.8443 48.6878 24.0636 49.8756C24.2018 50.0889 24.8098 50.9717 24.8098 50.9717C25.9292 51.2618 27.2751 51.9171 28.2181 53.2112C29.845 52.0885 33.5259 53.1124 34.8968 53.5905C35.2732 53.7528 35.5799 53.4565 35.5525 52.9016C35.521 52.279 34.9279 51.3942 35.2553 50.3774C35.841 48.5628 40.1934 44.7993 42.5786 42.4307C42.5782 42.4303 44.2462 43.7132 45.0933 44.2975ZM53.3437 28.3798C54.0945 30.3691 54.3643 31.2207 54.6067 32.5725C54.7996 33.6524 54.6959 34.6319 54.2945 35.1963C53.826 35.8574 52.5817 36.9025 50.1459 36.2999L50.1475 36.2949C49.3889 35.1316 47.8844 32.9053 47.2008 31.7988C47.6881 29.9349 47.9084 29.4809 48.2919 27.7041L49.2523 28.2175C49.7022 26.8944 50.7975 23.6036 51.0112 22.4087C51.0112 22.4087 51.3524 23.0616 51.5997 23.831C52.148 25.5298 52.7917 26.9176 53.3437 28.3798ZM40.4358 15.0419C39.9701 15.2577 39.1201 15.569 38.4258 15.8168C38.2706 15.4179 38.256 15.0979 38.3224 14.6269C38.896 14.5327 39.756 14.4111 40.3104 14.4111C40.6645 14.4111 40.7608 14.8825 40.4358 15.0419Z" fill="#A6A8AA"/>
<path fill-rule="evenodd" clip-rule="evenodd" d="M52.1999 27.4896C52.9515 29.4826 53.2221 30.3355 53.4645 31.6894C53.655 32.7539 53.5579 33.7346 53.1524 34.3041C52.6822 34.966 51.4362 36.0182 48.9971 35.4147L48.9987 35.4172C48.2384 34.2522 46.8871 32.1467 46.2031 31.0386C46.6903 29.1709 46.9116 28.7169 47.2959 26.9377C47.2959 26.9377 48.3625 27.5523 48.4106 27.3365C48.5891 26.5479 49.8056 22.8309 50.0197 21.6344C50.0197 21.6344 50.2061 22.1635 50.4543 22.9347C51.0029 24.6359 51.6479 26.0258 52.1999 27.4896ZM43.6805 19.7422C43.6805 25.0094 41.3169 28.8966 41.0119 33.5894C40.8172 36.593 41.0094 38.4565 41.8353 41.2139C41.8353 41.2139 42.8422 41.9963 43.8569 42.7786C45.4432 44.0017 47.5275 45.273 47.5275 45.273L48.0666 45.2194C49.8765 44.7828 50.1961 46.5849 49.982 47.1825C49.7686 47.7802 49.2303 48.0931 48.5376 48.0429C47.7698 47.9798 46.9228 47.5942 45.8968 48.2251C44.8634 48.8314 45.2962 50.8817 44.6687 51.7358C46.4036 51.7358 47.8089 52.6796 48.4883 53.1191C51.3229 51.8657 52.175 52.2663 55.047 52.7767C55.2462 52.817 55.3923 52.2131 55.1661 51.811C54.9823 51.4823 54.6515 50.6804 54.6984 50.0334L54.6909 42.7832C52.8606 43.0384 52.0185 42.2407 51.7006 41.2031C51.4657 40.4291 50.7934 38.8727 50.343 37.8675C50.343 37.8675 53.1673 37.792 54.6913 35.8679C55.262 35.1478 55.7434 33.9571 55.5318 32.3352C55.3014 30.5642 54.6872 29.0747 54.3224 28.0724C53.8156 26.6816 52.7797 24.2711 52.3755 22.833C51.804 20.7997 51.6247 19.9369 52.2717 18.7042C52.6315 18.0169 53.4396 17.3691 54.3493 17.8368C54.9466 18.1439 54.8154 18.3203 54.7586 18.4349C54.0177 19.636 53.7193 21.1919 54.0289 22.2897C54.4618 23.822 55.8397 25.0596 56.4436 25.461C56.4436 25.461 57.4716 26.1632 57.6742 26.0013C58.1573 25.617 56.9018 23.7618 56.9487 23.1604C56.9769 22.7844 57.0736 22.4424 57.1911 22.0465C57.3247 21.5945 57.5874 20.923 57.6613 20.2457C57.8941 18.1078 56.6876 16.1369 54.7204 15.8563C54.1958 15.7812 52.1136 15.4413 50.651 17.7314C50.3787 18.1593 49.9724 19.2056 50.0189 20.1378C49.303 18.3423 48.4335 16.302 47.4735 14.7942C47.2668 14.4987 46.1886 13.1665 45.8935 13.0785C44.6899 12.7423 42.3225 12.1459 41.6709 12.1052C41.6709 12.1065 43.6805 14.4751 43.6805 19.7422Z" fill="#E6E6E7"/>
</svg>
